<?xml version="1.0" encoding="utf-8"?>
<!-- Generator: Adobe Illustrator 24.0.0, SVG Export Plug-In . SVG Version: 6.00 Build 0)  -->
<svg version="1.1" id="Layer_1" xmlns="http://www.w3.org/2000/svg" xmlns:xlink="http://www.w3.org/1999/xlink" x="0px" y="0px"
	 viewBox="0 0 1280 1113" style="enable-background:new 0 0 1280 1113;" xml:space="preserve">
<style type="text/css">
	.st0{fill:#009448;}
	.st1{fill:none;}
	.st2{font-family:'MyriadPro-Regular';}
	.st3{font-size:255px;}
</style>
<g transform="translate(0.000000,1113.000000) scale(0.100000,-0.100000)">
	<path class="st0" d="M2050,11112c-118-40-232-113-336-216c-79-78-124-157-127-217c-1-28-5-38-14-35c-40,16-155,28-212,23
		c-105-9-175-40-246-111c-34-34-68-72-77-86l-15-25l-22,42c-71,140-262,238-424,217c-63-9-81-26-72-72c26-142,179-273,371-320l70-17
		v-115c0-105,3-122,32-199c17-46,67-145,110-220l78-137h-85c-74,1-94-3-143-27c-92-45-158-133-174-234c-8-50,0-89,21-96
		c23-10,222,50,311,93c45,22,94,54,108,71c15,17,29,29,33,26c9-10,16-142,9-179c-3-18-34-71-67-118c-34-47-78-119-100-161
		c-25-50-54-91-85-118c-26-22-50-41-53-41s-25,60-49,133c-69,214-154,368-244,440c-50,40-127,48-175,18c-70-44-77-180-17-339
		c58-155,180-302,282-338l48-17l-32-48c-37-56-64-159-64-247c0-80,29-184,90-326c83-193,101-290,80-425c-7-45-15-81-19-81
		s-12,15-19,34c-38,105-121,162-223,153c-84-7-133-34-137-73c-4-42,33-119,80-166c59-59,192-118,268-118h26l13-172
		c27-366,28-359-14-571c-20-106-39-198-41-205c-3-10-12-11-36-5c-18,4-62,8-98,8c-111-1-206-61-231-147c-11-40,3-66,46-84
		c80-33,182-6,271,71l41,35l6-50c3-27,15-70,26-95c20-44,20-47,2-114l-17-69l-41,53c-49,63-109,101-186,116c-68,14-118,6-154-26
		c-25-21-28-30-28-87c0-56,6-76,42-149c23-46,41-85,39-86c-1-1-22,4-48,11c-123,38-233,28-315-27c-96-65-134-160-99-251
		c41-108,211-206,359-206c26,0,47-3,47-7c0-3-11-20-24-37c-86-114-94-223-20-292c31-30,109-57,138-49c6,2,25,6,43,9l31,5l-5-77
		c-12-177,78-353,316-619c47-53,103-116,123-139l38-42h-93c-165,1-336-61-429-153c-43-43-48-53-48-92c0-88,71-123,230-114
		c157,9,320,61,432,138c71,48,69,49,119-56c52-109,57-209,14-298c-28-59-107-140-229-234c-61-47-134-108-162-134l-50-49l-28,72
		c-86,224-244,376-401,386c-70,5-143-12-152-35c-16-42,63-227,141-330c44-59,110-119,167-155c40-25,144-58,183-58h34l-11-37
		c-19-65-13-239,12-313c11-36,21-84,21-108c0-54,20-93,64-127c68-52,128-258,98-336l-10-26l-72,24l-71,24l-31-22c-30-22-30-22-26-99
		c8-138,83-257,200-316c29-14,54-28,56-29c1-1-11-24-27-51c-17-27-38-80-47-117c-15-58-15-78-5-133c15-82,48-158,106-240
		c25-36,45-66,45-67s-42-2-93-2c-82,0-99-4-159-32c-122-57-212-166-225-270c-8-70,12-89,105-105c151-25,240,19,372,187
		c45,58,86,102,93,99c15-5,73-92,87-129c24-63,2-195-48-289c-33-63-150-183-216-221c-60-35-133-52-258-61c-54-4-98-11-98-15
		c0-5-13-9-30-9c-26,0-30-4-36-36c-5-26-3-39,7-46c8-5,61-7,119-5c95,3,121,9,263,57c237,79,309,133,446,334
		c118,173,221,294,235,274c1-2,9-23,16-47c48-149,235-281,400-281c64,0,71,2,86,26c16,24,16,29,1,78c-44,140-156,252-305,306
		c-43,16-59,26-50,32c43,27,204,78,413,129c336,83,468,130,566,199l26,20l18-45c69-182,333-355,542-355c96,0,105,28,44,130
		c-44,72-41,80,24,80c98-1,197-71,467-337l136-135l-18-31c-59-101-73-309-30-421c12-33,37-75,56-95c29-32,38-36,84-36s55,4,84,36
		c94,102,106,328,25,468c-11,18-18,35-17,37c2,1,36,9,75,18c136,28,289,122,373,227c43,55,74,142,85,241c7,61,13,66,59,48
		c34-12,111-84,146-135c15-22,73-130,128-240c116-232,157-294,249-389c261-265,652-366,958-247c208,81,369,262,395,446
		c5,39,10,148,10,243c0,194,6,221,63,268c43,35,146,98,151,93c3-2-1-42-7-88c-12-91,0-236,28-346c21-85,96-232,146-288
		c46-53,131-107,167-107c29,0,45,36,67,156c13,68,16,124,13,237l-5,147h66c151,1,400,52,456,94c32,24,35,19,29-43
		c-8-74,10-180,42-242c48-96,128-152,262-184l73-18l26,24c25,23,25,26,19,119c-5,85-22,177-42,235c-6,18-5,18,10-2
		c44-59,151-82,230-49l34,14l6-40c16-98,89-178,163-178c66,1,164,75,179,135c3,14,10,25,14,25c20,0,49-55,65-122c9-40,19-81,21-90
		c8-27-61-40-369-73c-152-16-261-41-382-87c-153-58-152-72,8-178c158-105,220-125,356-117c120,7,194,26,297,77
		c94,46,152,103,179,176c10,27,20,50,21,52s28-10,60-26c194-97,350-87,461,29c23,24,48,52,56,63c12,16,16,12,53-50
		c57-98,172-216,246-254c82-40,120-40,164,4c19,19,34,44,34,58c0,63-114,235-203,307c-57,46-134,81-179,81c-21,0-38,2-38,4
		s7,23,16,47c8,24,40,138,70,254c57,222,79,277,144,368c37,51,45,57,76,57c118,0,210,133,185,267c-9,47-11,47,57,0
		c24-16,78-45,120-64c42-20,78-37,80-38c2-2-10-29-26-61c-100-202-135-387-93-481c23-50,57-74,115-80c180-21,290,344,182,599
		c-6,13,2,18,42,27c28,6,106,33,174,60c167,67,229,83,313,85c69,1,71,0,126-45c147-121,390-177,652-151c67,7,160,21,205,32
		c46,11,86,20,90,20s-56-33-134-73c-229-120-355-208-416-293c-24-34-39-45-67-49c-71-11-225-66-282-100c-126-77-199-194-199-320
		c0-55,3-66,22-79c43-30,165-10,262,42c51,27,159,126,188,172l15,24l17-51c63-190,312-410,581-514c163-64,294-86,465-81
		c71,3,80,9,72,51l-7,34l-145,2c-114,1-162,7-223,24c-418,117-745,456-677,701c24,86,111,178,241,253c46,27,49,27,55,10
		c25-70,106-238,139-288c22-33,101-123,176-199c136-140,136-140,170-130c39,11,47,30,48,121c3,155-44,326-118,430
		c-59,83-143,145-218,159c-18,3-33,9-33,13c0,3,58,36,128,74c160,85,254,154,293,215c29,45,30,51,27,137c-3,67-11,106-30,152
		c-65,159-204,351-384,530l-102,101l42,6c59,9,141,60,172,106c60,90,32,193-64,241l-53,26l27,18c72,47,114,120,114,197
		c0,68-32,134-80,166c-31,21-44,23-111,20c-65-4-86-10-152-46l-77-41v47c0,126-110,229-255,239c-112,8-165-56-173-209l-4-86l-52,5
		c-117,12-209-95-210-242c0-81,22-134,78-182l34-31l-30-28c-138-132-101-314,64-314c53,0,146,30,189,61c17,12,31,20,33,18
		c1-2,7-30,14-63c26-133,84-196,179-196c65,0,99,13,140,52c39,38,56,84,57,160c1,72,1,72,159-85c304-303,464-615,372-725
		c-2-2-30,18-63,45c-175,141-548,257-862,270c-223,9-344-20-414-97c-43-47-53-89-32-131c20-41,21-39-16-40c-18,0-72-10-120-23
		c-49-12-88-18-88-13c0,4,22,61,48,125c61,145,76,209,69,279c-12,113-91,212-223,280c-59,30-77,36-91,27c-26-16-50-62-67-129
		c-38-145-6-307,108-532c25-51,46-97,46-102s-35-22-77-37c-63-24-94-29-163-29c-77,0-92,4-163,37c-81,39-167,95-167,110
		c0,4,10,8,23,8c12,0,45,13,73,30c82,47,112,127,79,208c-34,79-141,152-226,152c-27,0-29,2-22,28c5,15,8,53,7,85
		c0,72-37,129-104,163c-55,28-145,32-196,8c-32-15-76-59-100-100c-11-18-12-18-35,3c-30,27-90,53-124,53c-104,0-217-141-202-252
		c3-22,19-62,35-88l29-47l-33-12c-80-29-95-105-43-210c63-126,188-217,287-209c26,3,54,8,63,12c11,5,20-6,38-49c13-30,42-76,65-102
		l42-46l-53-78c-56-84-86-165-129-348c-76-326-154-480-268-532c-46-21-112-24-167-9l-37,10l97,98c155,156,219,304,208,482
		c-7,99-40,205-69,221c-37,20-130-65-221-201c-69-102-128-291-143-459c-6-58-10-71-23-69c-27,5-58,65-76,145c-20,88-47,153-76,179
		c-25,22-24,34,2,34c32,0,89,30,106,56c24,37,32,90,20,136c-12,48-81,124-121,134c-14,3-26,7-26,9s9,22,20,46c40,89,15,164-70,207
		c-77,38-162,23-214-39l-24-28l-31,44c-64,89-148,110-232,56c-103-65-137-176-83-276l25-48l-30-31c-41-42-70-112-71-166l-1-45
		l-28,55c-38,73-100,142-172,191c-54,36-59,43-59,77c0,68-43,136-161,258c-165,171-204,273-179,472c23,181,44,224,159,317
		c74,59,81,63,81,40c0-31,79-102,152-136c68-32,80-34,175-34c90,0,104,2,117,20c52,68-48,223-186,288c-31,15-71,27-87,27
		c-17,0-31,2-31,4s13,33,30,68c16,34,30,69,30,76c0,8,12,4,33-12c56-43,127-69,187-70c73,0,116,23,141,77c23,51,24,98,4,163
		c-8,27-15,52-15,57c0,4,28,7,63,7c253,1,417,180,312,341c-29,45-95,78-170,86c-51,5-55,7-48,27c11,31,8,79-7,115
		c-23,56-94,76-165,47c-38-16-41-13-20,24c8,14,14,48,15,77c0,45-5,57-32,89c-60,68-180,104-241,73c-12-6-37-25-54-42l-33-31l-22,22
		c-31,29-107,62-143,62c-55,0-107-21-151-62c-89-82-103-210-40-359c6-13-4-18-50-28c-108-21-164-84-164-182c0-100,66-158,178-159
		c48,0,66-10,42-25c-6-4-22-28-35-55c-43-86-29-168,38-227s156-54,249,12c26,19,50,35,52,35c3,0,0-17-6-37c-29-107-88-182-222-287
		c-144-112-177-162-210-317l-6-26l-52,18c-110,38-290,15-428-54c-64-31-65-33-65-72v-39l85-43c173-86,342-126,431-101
		c25,7,28,4,47-50c32-87,75-147,183-257c131-133,161-204,125-288c-40-95-159-142-416-166c-186-17-171-21-198,54
		c-29,78-89,174-148,236l-45,45l16,37c19,47,20,182,0,265c-31,132-97,227-250,361c-118,103-178,182-205,268c-29,94-25,117,8,53
		c37-74,84-99,151-81c98,26,142,115,122,245c-6,39-14,81-17,93l-6,23l43-16c67-25,161-24,196,2c65,48,93,156,58,224
		c-15,29-79,70-110,70c-19,0-19-1,5,51c11,24,20,54,20,67c0,36-37,98-77,129c-32,24-46,28-103,28c-58,0-74-4-119-33
		c-29-17-54-32-56-32c-3,0-12,15-21,33c-21,41-71,95-106,113c-15,8-47,14-72,14c-92,0-153-92-144-217l5-68h-76c-99-1-154-27-182-88
		c-23-52-24-79-3-123c19-40,62-68,129-86c28-6,51-13,53-14c1,0-9-25-23-55c-48-103-28-191,55-247c34-23,66-25,144-11
		c19,4,19,4,53-128c5-22,4-22-58-17c-138,12-325-57-439-163c-123-113-127-143-28-189c53-24,76-29,143-29c69,0,90,5,147,32
		c80,37,135,74,241,160l78,64l42-46c23-24,77-76,121-114c102-90,161-170,186-251c27-84,36-196,21-243c-16-47-70-98-145-138
		c-145-77-225-147-247-216c-6-21-14-111-16-199l-5-162l-67,67c-117,119-260,200-353,201c-58,0-104-34-114-86
		c-19-103,165-303,379-408l88-44l-61-60c-106-106-222-162-382-183c-152-21-342,20-493,106c-195,111-285,217-425,500
		c-55,110-118,228-140,262c-56,86-147,167-210,188l-50,17l22,40c43,78,188,170,342,217c37,12,70,21,72,21s4-30,4-67
		c0-90,14-137,56-182c48-54,108-70,169-47c55,21,109,82,130,147l16,48l36-25c123-83,254,61,183,201c-11,22-20,40-20,42
		c0,1,23,12,50,24c58,25,90,63,90,109c0,79-67,129-171,130h-56l5,49c6,63-24,133-69,160c-45,28-112,36-150,21c-35-15-76-71-85-118
		c-4-17-7-32-9-32c-1,0-17,7-35,17c-53,26-138,21-199-13c-146-79-175-258-57-362c32-28,34-33,19-38c-90-31-194-80-253-119
		c-73-49-145-128-156-171c-9-35-19-29-33,18c-22,74-97,221-135,265c-40,46-97,70-140,59c-40-10-93-63-112-112c-25-65-15-146,30-240
		c65-137,200-244,307-244c29,0,30-1,24-33c-4-17-14-45-22-61c-58-112-265-239-403-246c-121-7-104-16-299,173s-276,255-364,298
		c-79,37-140,45-201,24l-49-17l-46,50c-25,27-67,66-93,87c-41,32-47,41-41,64c17,73,72,139,140,167c17,8,94,21,170,29
		c103,11,150,21,187,39l48,24l59-62c140-151,309-177,361-58c36,80,5,143-95,191c-34,17-91,35-127,41c-121,21-110,11-93,80l15,60
		l34-30c41-35,72-45,122-36c41,6,76,29,105,68c22,29,28,100,14,155c-6,24-5,33,4,33c7,0,32,9,56,21c124,60,84,232-63,271
		c-34,9-43,16-39,28c19,47,16,106-7,149c-32,62-66,84-138,89c-60,4-61,4-99-36c-36-38-71-113-71-154c0-26-12-22-46,13
		c-40,43-123,89-159,89c-82,0-139-84-140-206c0-61,3-75,27-105c14-19,44-43,66-53l40-18l-23-45c-48-90-40-169,21-210
		c32-21,126-21,177,0c20,9,37,13,37,9c-1-32-32-128-53-165c-27-46-90-87-134-87c-19,0-21,7-25,72c-6,118-61,217-156,286
		c-51,36-73,40-98,15c-14-14-16-31-12-104c4-71,12-101,37-155c18-38,43-82,55-99l24-31l-49-11c-113-27-201-99-237-194
		c-13-34-25-52-34-50c-7,2-38,13-69,24l-56,19l13,39c46,131,12,325-93,533c-19,37-33,70-31,71c2,2,36-1,77-7c131-21,227,16,272,104
		c18,36,21,54,17,132c-4,74-9,101-31,143c-54,106-143,173-227,173h-40v58c0,108-49,228-111,274c-33,25-85,36-127,27
		c-72-15-145-128-160-245l-7-58l-55,2c-69,3-121-25-164-86c-25-35-31-55-34-110c-3-59-1-72,21-104l25-36l-38-41
		c-60-63-74-134-41-206c35-77,105-116,175-96l36,9v-61c0-71,20-120,63-151c36-27,145-28,193-3c42,22,89,77,104,123l13,38l17-35
		c10-19,31-72,46-119c25-72,29-101,29-190s-3-111-22-145c-25-48-92-112-154-148c-67-39-249-99-254-84c-2,6-6,46-9,87
		c-12,159-88,351-186,469c-109,130-287,230-426,239c-70,4-72,4-109-30c-33-30-39-42-43-90c-6-71,26-186,80-292c31-60,63-102,122-161
		c95-94,167-138,329-201c64-26,119-50,122-54c2-4-66-24-153-45c-86-21-187-48-224-61l-68-23v23c0,36-59,116-109,148
		c-90,56-209,73-317,44c-74-20-169-73-210-118c-19-21-39-36-44-33c-23,14-131,191-145,237c-18,63-19,140-1,191c34,93,86,139,281,242
		c188,100,278,171,329,258c31,53,46,131,36,187c-4,22-6,40-5,40c2,0,22-9,46-20c52-23,138-26,178-6c15,8,42,31,60,51
		c27,31,31,43,31,91c0,73-35,145-106,219c-30,32-53,58-52,59c67,28,100,53,118,92c29,58,19,107-30,156c-29,30-47,38-88,44
		c-33,4-52,11-52,20c0,7,41,34,91,61c120,63,211,140,274,234c62,91,115,230,122,320l5,65l57-19c100-34,187-10,288,78
		c66,58,84,105,58,154c-10,20-31,39-53,48c-75,31-273-1-379-63c-17-10-33-16-36-14c-24,29-78,137-91,179c-36,122-20,185,110,446
		c111,223,133,298,114,404c-6,35-10,64-8,65c49,31,62,44,75,74c34,82,8,156-74,208c-24,15-43,29-43,31s12,20,27,39
		c37,50,44,129,14,178c-51,82-180,99-272,35c-26-18-27-18-49,6c-33,35-84,56-138,56c-57,1-88-10-130-46c-76-64-84-152-19-222
		c11-13,19-24,16-25c-2-2-44-23-92-47c-137-68-169-136-108-232c54-86,156-124,252-95c30,10,60,20,67,22c6,3,12-1,12-9
		c0-29,58-94,99-111c54-21,76-20,129,5c48,24,102,95,102,136c0,68,50-26,57-108c8-79-15-147-110-334c-45-88-83-162-84-164
		s-28,20-60,49c-129,118-255,132-386,41c-94-65-104-86-59-128c73-68,219-115,359-116h101l-5-32c-12-72,28-193,109-331
		c80-136,84-215,19-372c-51-124-107-197-205-266c-53-38-137-86-149-86c-3,0-7,14-11,31c-9,44-72,105-125,119c-82,22-155-9-192-81
		l-20-40l-51,56c-76,83-155,117-222,95c-44-14-102-78-115-127c-18-63-13-162,12-235l23-67l-48-11c-52-11-122-42-151-68
		c-9-8-20-13-23-9c-3,3-9,44-11,91c-6,94,8,190,37,246c22,43,98,116,205,195c139,104,221,189,262,271l36,73l50-72
		c61-86,169-197,217-222c51-27,114-24,146,6c88,82,66,218-55,351c-94,103-220,144-317,103c-26-11-36-11-38-2c-46,169-98,249-326,497
		c-216,235-298,341-355,461c-61,128-66,232-18,322l18,32l6-80c14-187,79-275,201-275c175,0,343,264,325,507l-6,74l32-8
		c18-4,75-8,127-8c85,0,100,3,141,27c134,79,163,201,74,306c-58,67-210,131-313,132h-34l31,39c17,21,46,70,64,108
		c29,63,32,76,32,168c0,88-3,105-25,145c-30,53-96,105-153,121c-63,17-193,7-243-19c-22-11-46-28-53-36c-22-26-29-19-41,40
		c-15,70-8,132,37,354c41,197,45,283,23,510c-7,74-11,178-9,230c4,84,8,103,40,170c40,84,113,171,159,190c72,30,225-13,298-83
		c56-54,84-122,37-91c-39,25-142,29-184,7c-58-30-76-65-76-141c1-42,7-78,17-98c16-30,16-30-19-58c-55-44-73-82-73-154
		s20-120,72-168c54-51,92-66,162-62c54,3,61,1,65-17c11-62,76-105,158-105c90,0,172,76,173,158c0,29,3,32,33,32c84,0,141,70,141,174
		c-1,69-18,111-63,149l-31,25l20,44c74,163-86,294-235,192c-21-14-38-24-40-22c-1,2-5,19-8,38l-5,35l162,1c140,1,174,4,260,27
		c54,15,128,41,165,59c62,31,66,35,69,70c3,34-1,40-40,69c-55,40-147,83-218,99c-75,18-203,16-271-3c-70-21-170-87-206-136l-26-37
		l-76,38c-115,58-227,69-306,31c-16-9-54-38-82-66l-53-51v75c0,95-26,194-90,343c-27,65-57,143-66,174c-32,109-15,270,36,334
		c11,14,64,55,117,90c114,75,160,123,204,210c61,122,88,159,216,297c61,66,172,161,188,161c3,0-19-30-48-67
		c-174-217-215-424-125-636c26-61,62-82,116-68c80,22,152,120,201,276c53,164,65,246,66,422v163h51c118,0,214-57,293-176
		c71-106,76-130,61-301l-12-141l-52,55c-44,48-57,56-97,60c-130,15-184-102-121-262l28-71l-62,4c-104,7-164-39-164-126
		c0-56,34-101,102-135l57-29l-30-40c-60-83-24-214,73-264c49-25,117-11,165,35c28,26,30,26,37-3c3-13,24-40,46-60c33-29,48-36,83-36
		c82,0,151,68,170,169c11,57,13,60,47,66c144,26,260,146,260,269c0,88-56,146-158,162l-40,6l15,42c22,62,21,163-3,211
		c-29,60-77,88-142,83c-33-3-64-13-82-26c-16-12-31-22-33-22s-1,53,1,118c4,131-3,165-59,259c-176,292-498,313-801,52l-56-49l-11,66
		c-18,101-52,181-157,364c-122,216-147,284-142,405c3,80,7,99,40,168c63,131,179,227,274,227c22,0,22-1-12-67c-51-102-68-179-67-313
		c1-171,50-321,145-448c54-72,71-69,120,23c64,119,100,245,101,350c0,105-9,143-69,282c-24,55-47,116-51,133c-6,32-6,32,28,25
		c62-13,175-65,250-115c71-47,129-94,129-103c0-3-15-8-33-11c-40-8-111-66-134-110c-24-46-21-140,6-198c55-115,163-191,270-191
		c31,0,66,5,79,12c20,11,22,10,22-15c0-92,67-178,162-208c131-41,211,31,211,188v71l39-4c85-8,152,40,197,139c59,130-4,215-181,245
		l-38,6l22,42c46,90,22,199-52,238c-47,26-88,24-144-6c-26-14-49-25-51-25s-6,13-10,29c-18,81-105,161-175,161
		c-106,0-169-88-156-218l7-65l-33,29c-18,16-57,44-85,62l-53,34l59,39c122,81,331,300,381,400c26,51,25,81-5,109
		C2192,11131,2122,11136,2050,11112z M1835,10684c-39-32-95-65-95-56c0,7,110,82,120,82C1863,10709,1852,10698,1835,10684z
		 M2125,10581c3-5,1-12-5-16c-5-3-10,1-10,9C2110,10592,2116,10595,2125,10581z M2070,10540c0-5-4-10-10-10c-5,0-10,5-10,10
		c0,6,5,10,10,10C2066,10550,2070,10546,2070,10540z M2455,10440c-3-5-11-10-16-10c-6,0-7,5-4,10c3,6,11,10,16,10
		C2457,10450,2458,10446,2455,10440z M2420,10396c0-3-4-8-10-11c-5-3-10-1-10,4c0,6,5,11,10,11C2416,10400,2420,10398,2420,10396z
		 M2290,10161c0-11-39-25-47-18c-3,3-2,10,2,16C2253,10172,2290,10174,2290,10161z M2360,10130c0-5-4-10-10-10c-5,0-10,5-10,10
		c0,6,5,10,10,10C2356,10140,2360,10136,2360,10130z M2570,10060c0-5-5-10-11-10c-5,0-7,5-4,10c3,6,8,10,11,10
		C2568,10070,2570,10066,2570,10060z M2105,9980c3-5,1-10-4-10c-6,0-11,5-11,10c0,6,2,10,4,10C2097,9990,2102,9986,2105,9980z
		 M2355,9867c13-10,16-21,11-40c-9-36-22-34-35,4C2313,9883,2319,9893,2355,9867z M2360,8831c0-12-20-25-27-18s6,27,18,27
		C2356,8840,2360,8836,2360,8831z M2054,8700c7-24,6-24-8-6c-9,11-16,29-16,40c1,17,2,18,9,6C2044,8732,2051,8714,2054,8700z
		 M2280,8730c0-5-5-10-11-10c-5,0-7,5-4,10c3,6,8,10,11,10C2278,8740,2280,8736,2280,8730z M2370,8522c0-15-4-33-9-41s-8,3-7,32
		C2355,8560,2370,8569,2370,8522z M2548,8512c2-7-3-12-12-12s-16,7-16,16C2520,8533,2542,8530,2548,8512z M2093,8370
		c-6-6-33,30-33,43c0,5,9-1,19-14C2090,8386,2096,8373,2093,8370z M1840,7870c-41-4-93-10-115-13l-40-6l40,13c22,8,74,14,115,14
		l75-1L1840,7870z M1345,7510c3-5,1-10-4-10c-6,0-11,5-11,10c0,6,2,10,4,10C1337,7520,1342,7516,1345,7510z M1770,7480
		c0-5-2-10-4-10c-3,0-8,5-11,10c-3,6-1,10,4,10C1765,7490,1770,7486,1770,7480z M1700,7430c0-5-5-10-11-10c-5,0-7,5-4,10
		c3,6,8,10,11,10C1698,7440,1700,7436,1700,7430z M1572,7223c10-9,18-20,18-25c0-16-23-8-46,17c-19,20-20,25-7,25
		C1546,7240,1562,7233,1572,7223z M1830,7095c-7-8-17-15-23-15c-5,0-2,9,8,20C1836,7123,1850,7119,1830,7095z M1573,7093
		c-7-2-21-2-30,0c-10,3-4,5,12,5C1572,7098,1579,7096,1573,7093z M1080,6140c0-41-29-110-46-110c-8,0-19,11-24,25
		c-16,42,23,113,63,115C1077,6170,1080,6157,1080,6140z M362,5623c89-37,92-38,55-41s-119,16-187,44c-27,12-32,17-20,24
		C236,5667,267,5661,362,5623z M1067,5638c-3-8-6-5-6,6c-1,11,2,17,5,13C1069,5654,1070,5645,1067,5638z M861,5567c-10-9-11-8-5,6
		c3,10,9,15,12,12S868,5574,861,5567z M220,5513c3-3-9,1-26,10s-37,23-44,33C138,5570,205,5529,220,5513z M1448,5531
		c23-9,40-20,36-24c-15-14-50-6-79,18C1369,5554,1386,5556,1448,5531z M1870,5409c0-6-4-7-10-4c-5,3-10,11-10,16c0,6,5,7,10,4
		C1866,5422,1870,5414,1870,5409z M1940,5400c0-5-5-10-11-10c-5,0-7,5-4,10c3,6,8,10,11,10C1938,5410,1940,5406,1940,5400z
		 M2250,5330c0-5-5-10-11-10c-5,0-7,5-4,10c3,6,8,10,11,10C2248,5340,2250,5336,2250,5330z M621,5251c-18-34-91-68-91-43
		c0,24,51,61,83,62C627,5270,629,5266,621,5251z M2030,5220c0-5-5-10-11-10c-5,0-7,5-4,10c3,6,8,10,11,10
		C2028,5230,2030,5226,2030,5220z M1905,5201c3-5,1-12-5-16c-5-3-10,1-10,9C1890,5212,1896,5215,1905,5201z M2070,5184
		c0-8-5-12-10-9c-6,4-8,11-5,16C2064,5205,2070,5202,2070,5184z M445,5151c-3-6-11-8-17-5c-6,4-5,9,3,15C447,5171,454,5165,445,5151
		z M1090,5140c0-35-41-130-56-130c-36,0-29,56,13,113C1079,5164,1090,5169,1090,5140z M1715,5030c3-5,1-10-4-10c-6,0-11,5-11,10
		c0,6,2,10,4,10C1707,5040,1712,5036,1715,5030z M7925,3467c0-26-20-25-23,2c-3,16,1,22,10,19C7919,3485,7925,3476,7925,3467z
		 M7880,3380c0-5-2-10-4-10c-3,0-8,5-11,10c-3,6-1,10,4,10C7875,3390,7880,3386,7880,3380z M11700,3344c0-8-4-12-10-9
		c-5,3-10,10-10,16c0,5,5,9,10,9C11696,3360,11700,3353,11700,3344z M11744,3295c26-24,31-40,20-69c-9-24-22-19-44,17
		c-20,33-27,77-11,77C11713,3320,11729,3309,11744,3295z M8130,3166c0-3-4-8-10-11c-5-3-10-1-10,4c0,6,5,11,10,11
		C8126,3170,8130,3168,8130,3166z M11465,3141c3-5,1-12-5-16c-5-3-10,1-10,9C11450,3152,11456,3155,11465,3141z M8091,3068l-9-33
		l-1,36c-1,20,2,39,6,43C8100,3126,8102,3104,8091,3068z M12220,3081c0-13-49-23-73-14c-20,6-20,7,8,14
		C12200,3091,12220,3091,12220,3081z M6540,3040c0-5-2-10-4-10c-3,0-8,5-11,10c-3,6-1,10,4,10C6535,3050,6540,3046,6540,3040z
		 M8619,3009c-24-15-99-11-99,5c0,24,51,35,84,19C8626,3021,8630,3016,8619,3009z M6570,3000c0-5-2-10-4-10c-3,0-8,5-11,10
		c-3,6-1,10,4,10C6565,3010,6570,3006,6570,3000z M11460,2984c0-8-5-12-10-9c-6,4-8,11-5,16C11454,3005,11460,3002,11460,2984z
		 M6926,2868c-18-26-22-17-5,14c6,11,13,17,16,15C6940,2894,6935,2881,6926,2868z M1545,2809c5-5-5-4-23,2c-17,6-32,13-32,16
		C1490,2834,1533,2819,1545,2809z M6900,2820c0-5-4-10-9-10c-6,0-13,5-16,10c-3,6,1,10,9,10C6893,2830,6900,2826,6900,2820z
		 M8310,2795c-7-9-15-13-19-10c-3,3,1,10,9,15C8321,2814,8324,2812,8310,2795z M7940,2780c0-5-5-10-11-10c-5,0-7,5-4,10
		c3,6,8,10,11,10C7938,2790,7940,2786,7940,2780z M6470,2714c0-8-4-12-10-9c-5,3-10,10-10,16c0,5,5,9,10,9
		C6466,2730,6470,2723,6470,2714z M2654,2704c17-6,22-24,8-24c-5,0-17,7-28,15C2615,2710,2626,2715,2654,2704z M7092,2658
		c-7-7-12-8-12-2c0,14,12,26,19,19C7101,2672,7098,2664,7092,2658z M7042,2628c-17-8-26-8-34,0c-9,9-4,12,23,11
		C7063,2639,7064,2638,7042,2628z M7110,2626c0-8-5-18-12-22c-7-5-8-3-3,6c4,7,2,16-6,21c-11,7-10,9,4,9
		C7102,2640,7110,2634,7110,2626z M1215,2620c3-5,1-10-4-10c-6,0-11,5-11,10c0,6,2,10,4,10C1207,2630,1212,2626,1215,2620z
		 M1409,2554c14-12-39-1-55,11c-17,13-16,14,16,3C1389,2562,1407,2555,1409,2554z M6505,2507c-9-45-42-100-56-91c-15,9-3,51,27,97
		C6506,2558,6514,2556,6505,2507z M6765,2405c4-57,3-75-4-64c-15,23-27,167-13,154C6754,2490,6762,2449,6765,2405z M2460,2486
		c0-11-19-15-25-6c-3,5,1,10,9,10C2453,2490,2460,2488,2460,2486z M3870,2460c0-5-5-10-11-10c-5,0-7,5-4,10c3,6,8,10,11,10
		C3868,2470,3870,2466,3870,2460z M1804,2407c23-31,17-43-13-28c-19,10-51,59-51,77C1740,2467,1784,2434,1804,2407z M1145,2328
		c0-104,2-118,28-170c41-83,73-103,169-103c70,0,79,2,115,31c44,36,70,77,94,148l17,51l12-30c6-16,14-55,17-85
		c11-118-69-203-316-337c-69-37-128-69-132-71c-3-1-9,29-13,68c-7,74-27,126-71,178l-25,30l16,63c21,83,11,156-41,292
		c-6,13-2,17,16,18c20,0,114,24,114,28C1145,2439,1145,2389,1145,2328z M2440,2430c0-19-30-70-41-70c-8,0-7,5,1,15c7,9,10,18,7,22
		c-8,8,11,43,23,43C2436,2440,2440,2435,2440,2430z M1330,2426c0-3-4-8-10-11c-5-3-10-1-10,4c0,6,5,11,10,11
		C1326,2430,1330,2428,1330,2426z M1347,2323c-3-10-5-4-5,12c0,17,2,24,5,18C1349,2346,1349,2332,1347,2323z M2630,2336
		c0-3-4-8-10-11c-5-3-10-1-10,4c0,6,5,11,10,11C2626,2340,2630,2338,2630,2336z M3895,2320c3-5-1-10-10-10s-13,5-10,10
		c3,6,8,10,10,10S3892,2326,3895,2320z M2964,2294c23-9,20-29-9-48c-43-28-54-20-35,28C2930,2301,2937,2304,2964,2294z M6785,2280
		c3-5,1-10-4-10c-6,0-11,5-11,10c0,6,2,10,4,10C6777,2290,6782,2286,6785,2280z M9675,2211c3-5,1-12-5-16c-5-3-10,1-10,9
		C9660,2222,9666,2225,9675,2211z M3592,2195c0-5-5-11-11-13s-11,4-11,13s5,15,11,13S3592,2200,3592,2195z M4000,2190c0-5-2-10-4-10
		c-3,0-8,5-11,10c-3,6-1,10,4,10C3995,2200,4000,2196,4000,2190z M10031,2190c21-12,25-30,7-48c-15-15-48,3-48,27
		C9990,2200,10001,2205,10031,2190z M9670,2145c0-18-5-25-20-25c-24,0-25,8-3,32C9668,2175,9670,2175,9670,2145z M3650,2020
		c0-5-5-10-11-10c-5,0-7,5-4,10c3,6,8,10,11,10C3648,2030,3650,2026,3650,2020z M9600,2010c0-5-4-10-10-10c-5,0-10,5-10,10
		c0,6,5,10,10,10C9596,2020,9600,2016,9600,2010z M5619,1896l-1-51l-8,50c-4,28-11,59-15,70c-7,20-6,20,9,1
		C5614,1953,5620,1928,5619,1896z M2564,1947c-5-15-33-31-40-24c-2,2,6,14,17,26C2564,1973,2574,1972,2564,1947z M10278,1911
		c17-11,3-17-62-26c-30-5-46-4-46,3C10170,1914,10248,1931,10278,1911z M1830,1700c11-22,18-40,15-40c-2,0-14,18-25,40s-18,40-15,40
		C1807,1740,1819,1722,1830,1700z M5246,1699c-8-19-15-29-15-22c-1,18,19,67,25,61C5259,1735,5254,1717,5246,1699z M5600,1637
		c0-5-4-5-10-2c-5,3-10,14-10,23c0,15,2,15,10,2C5595,1652,5600,1641,5600,1637z M5488,1642c3-9-2-13-14-10c-9,1-19,9-22,16
		c-3,9,2,13,14,10C5475,1657,5485,1649,5488,1642z M5220,1630c0-5-5-10-11-10c-5,0-7,5-4,10c3,6,8,10,11,10
		C5218,1640,5220,1636,5220,1630z M1905,1590c10-11,16-20,13-20s-13,9-23,20s-16,20-13,20S1895,1601,1905,1590z M5220,1606
		c0-3-4-8-10-11c-5-3-10-1-10,4c0,6,5,11,10,11C5216,1610,5220,1608,5220,1606z M10028,1592c9-6,10-16,1-40c-12-36-21-39-43-16
		c-19,18-19,20-6,45C9991,1601,10007,1605,10028,1592z M5650,1500c0-5-7-10-15-10s-15,5-15,10c0,6,7,10,15,10S5650,1506,5650,1500z
		 M8505,1300c3-5,1-10-4-10c-6,0-11,5-11,10c0,6,2,10,4,10C8497,1310,8502,1306,8505,1300z M8464,1219c-25-27-28-17-8,23
		c14,26,19,29,22,15C8480,1247,8474,1230,8464,1219z M8460,1140c0-5-4-10-10-10c-5,0-10,5-10,10c0,6,5,10,10,10
		C8456,1150,8460,1146,8460,1140z M8683,1013c-7-2-19-2-25,0c-7,3-2,5,12,5S8689,1016,8683,1013z M8928,954c27-8,29-24,3-24
		c-28,0-52,11-45,21C8892,962,8897,962,8928,954z M8860,940c0-5-4-10-10-10c-5,0-10,5-10,10c0,6,5,10,10,10
		C8856,950,8860,946,8860,940z M9000,940c0-5-4-10-10-10c-5,0-10,5-10,10c0,6,5,10,10,10C8996,950,9000,946,9000,940z M1503,890h120
		l-77-77c-42-42-107-121-143-175c-37-54-68-97-69-95c-2,2,3,25,11,52c22,72,19,210-5,264l-20,44l31-7C1368,893,1437,890,1503,890z
		 M8425,850c3-5,1-10-4-10c-6,0-11,5-11,10c0,6,2,10,4,10C8417,860,8422,856,8425,850z M8640,810c0-5-5-10-11-10c-5,0-7,5-4,10
		c3,6,8,10,11,10C8638,820,8640,816,8640,810z M8721,770c27-15,24-30-6-30c-14,0-29,8-35,20c-9,16-8,20,5,20
		C8694,780,8710,775,8721,770z M8710,680c0-5-4-10-10-10c-5,0-10,5-10,10c0,6,5,10,10,10C8706,690,8710,686,8710,680z M8595,309
		c-22-4-51-8-65-7c-35,1,34,15,75,16C8630,318,8628,316,8595,309z"/>
</g>
<rect x="422.4" y="242.4" class="st1" width="755.8" height="302.9"/>
<text transform="matrix(1 0 0 1 422.4448 423.3999)" class="st2 st3">Plants</text>
</svg>
